<svg xmlns="http://www.w3.org/2000/svg" xmlns:xlink="http://www.w3.org/1999/xlink" width="208" zoomAndPan="magnify" viewBox="0 0 156 36.000001" height="48" preserveAspectRatio="xMidYMid meet" version="1.0"><defs><g/><clipPath id="b807577ece"><path d="M 3.484375 3.945312 L 82.804688 3.945312 L 82.804688 31.082031 L 3.484375 31.082031 Z M 3.484375 3.945312 " clip-rule="nonzero"/></clipPath><clipPath id="23031bcccd"><path d="M 20.898438 3.945312 L 81.460938 3.945312 C 81.863281 3.945312 82.238281 4.160156 82.4375 4.511719 C 82.636719 4.863281 82.632812 5.292969 82.429688 5.640625 L 68.367188 29.386719 C 67.742188 30.4375 66.613281 31.082031 65.390625 31.082031 L 4.828125 31.082031 C 4.425781 31.082031 4.050781 30.867188 3.851562 30.515625 C 3.652344 30.164062 3.65625 29.734375 3.859375 29.386719 L 17.921875 5.640625 C 18.546875 4.589844 19.675781 3.945312 20.898438 3.945312 Z M 20.898438 3.945312 " clip-rule="nonzero"/></clipPath></defs><g clip-path="url(#b807577ece)"><g clip-path="url(#23031bcccd)"><path fill="#5c636a" d="M 2.855469 3.945312 L 83.433594 3.945312 L 83.433594 31.082031 L 2.855469 31.082031 Z M 2.855469 3.945312 " fill-opacity="1" fill-rule="nonzero"/></g></g><g fill="#ffffff" fill-opacity="1"><g transform="translate(15.528732, 25.588879)"><g><path d="M 12.859375 -11.84375 L 8.375 -11.84375 L 8.375 0 L 4.59375 0 L 4.59375 -11.84375 L 0.15625 -11.84375 L 0.15625 -14.890625 L 12.859375 -14.890625 Z M 12.859375 -11.84375 "/></g></g></g><g fill="#ffffff" fill-opacity="1"><g transform="translate(27.30018, 25.588879)"><g><path d="M 13.125 -11.90625 L 5.265625 -11.90625 L 5.265625 -8.953125 L 12.375 -8.953125 L 12.375 -5.96875 L 5.265625 -5.96875 L 5.265625 -2.96875 L 13.359375 -2.96875 L 13.359375 0 L 1.484375 0 L 1.484375 -14.875 L 13.125 -14.875 Z M 13.125 -11.90625 "/></g></g></g><g fill="#ffffff" fill-opacity="1"><g transform="translate(40.410275, 25.588879)"><g><path d="M 8.453125 -15 C 9.554688 -15 10.644531 -14.769531 11.71875 -14.3125 C 12.789062 -13.863281 13.703125 -13.257812 14.453125 -12.5 L 12.265625 -9.90625 C 11.773438 -10.5 11.191406 -10.96875 10.515625 -11.3125 C 9.847656 -11.664062 9.179688 -11.84375 8.515625 -11.84375 C 7.335938 -11.84375 6.351562 -11.425781 5.5625 -10.59375 C 4.769531 -9.757812 4.375 -8.734375 4.375 -7.515625 C 4.375 -6.273438 4.769531 -5.234375 5.5625 -4.390625 C 6.351562 -3.554688 7.335938 -3.140625 8.515625 -3.140625 C 9.140625 -3.140625 9.785156 -3.296875 10.453125 -3.609375 C 11.128906 -3.921875 11.734375 -4.347656 12.265625 -4.890625 L 14.46875 -2.546875 C 13.664062 -1.722656 12.710938 -1.0625 11.609375 -0.5625 C 10.515625 -0.0703125 9.421875 0.171875 8.328125 0.171875 C 6.085938 0.171875 4.222656 -0.554688 2.734375 -2.015625 C 1.253906 -3.472656 0.515625 -5.296875 0.515625 -7.484375 C 0.515625 -9.617188 1.269531 -11.40625 2.78125 -12.84375 C 4.300781 -14.28125 6.191406 -15 8.453125 -15 Z M 8.453125 -15 "/></g></g></g><g fill="#ffffff" fill-opacity="1"><g transform="translate(53.902833, 25.588879)"><g><path d="M 15.21875 0 L 11.4375 0 L 11.4375 -5.78125 L 5.265625 -5.78125 L 5.265625 0 L 1.484375 0 L 1.484375 -14.875 L 5.265625 -14.875 L 5.265625 -8.75 L 11.4375 -8.75 L 11.4375 -14.875 L 15.21875 -14.875 Z M 15.21875 0 "/></g></g></g><g fill="#5c636a" fill-opacity="1"><g transform="translate(79.623831, 25.781613)"><g><path d="M 13.15625 -12.109375 L 8.5625 -12.109375 L 8.5625 0 L 4.6875 0 L 4.6875 -12.109375 L 0.15625 -12.109375 L 0.15625 -15.234375 L 13.15625 -15.234375 Z M 13.15625 -12.109375 "/></g></g></g><g fill="#5c636a" fill-opacity="1"><g transform="translate(91.656189, 25.781613)"><g><path d="M 10.6875 0 L 8.4375 -4.28125 L 5.390625 -4.28125 L 5.390625 0 L 1.515625 0 L 1.515625 -15.21875 L 8.328125 -15.21875 C 10.335938 -15.21875 11.894531 -14.753906 13 -13.828125 C 14.101562 -12.910156 14.65625 -11.601562 14.65625 -9.90625 C 14.65625 -7.5625 13.734375 -5.929688 11.890625 -5.015625 L 15.078125 0 Z M 5.390625 -7.328125 L 8.328125 -7.328125 C 9.160156 -7.328125 9.804688 -7.535156 10.265625 -7.953125 C 10.734375 -8.367188 10.96875 -8.976562 10.96875 -9.78125 C 10.96875 -10.5625 10.734375 -11.15625 10.265625 -11.5625 C 9.804688 -11.96875 9.160156 -12.171875 8.328125 -12.171875 L 5.390625 -12.171875 Z M 5.390625 -7.328125 "/></g></g></g><g fill="#5c636a" fill-opacity="1"><g transform="translate(106.143, 25.781613)"><g><path d="M 8.734375 -15.34375 C 11.097656 -15.34375 13.0625 -14.609375 14.625 -13.140625 C 16.1875 -11.671875 16.96875 -9.832031 16.96875 -7.625 C 16.96875 -5.40625 16.179688 -3.550781 14.609375 -2.0625 C 13.046875 -0.570312 11.085938 0.171875 8.734375 0.171875 C 6.390625 0.171875 4.429688 -0.566406 2.859375 -2.046875 C 1.296875 -3.535156 0.515625 -5.394531 0.515625 -7.625 C 0.515625 -9.84375 1.296875 -11.679688 2.859375 -13.140625 C 4.429688 -14.609375 6.390625 -15.34375 8.734375 -15.34375 Z M 8.78125 -12.109375 C 7.59375 -12.109375 6.578125 -11.675781 5.734375 -10.8125 C 4.898438 -9.945312 4.484375 -8.875 4.484375 -7.59375 C 4.484375 -6.320312 4.90625 -5.25 5.75 -4.375 C 6.59375 -3.5 7.601562 -3.0625 8.78125 -3.0625 C 9.957031 -3.0625 10.953125 -3.5 11.765625 -4.375 C 12.585938 -5.25 13 -6.320312 13 -7.59375 C 13 -8.875 12.585938 -9.945312 11.765625 -10.8125 C 10.953125 -11.675781 9.957031 -12.109375 8.78125 -12.109375 Z M 8.78125 -12.109375 "/></g></g></g><g fill="#5c636a" fill-opacity="1"><g transform="translate(122.38921, 25.781613)"><g><path d="M 9.890625 0 L 5.890625 0 L -0.015625 -15.21875 L 4.109375 -15.21875 L 8 -4.015625 L 11.890625 -15.21875 L 15.859375 -15.21875 Z M 9.890625 0 "/></g></g></g><g fill="#5c636a" fill-opacity="1"><g transform="translate(136.984628, 25.781613)"><g><path d="M 13.4375 -12.171875 L 5.390625 -12.171875 L 5.390625 -9.15625 L 12.65625 -9.15625 L 12.65625 -6.109375 L 5.390625 -6.109375 L 5.390625 -3.046875 L 13.671875 -3.046875 L 13.671875 0 L 1.515625 0 L 1.515625 -15.21875 L 13.4375 -15.21875 Z M 13.4375 -12.171875 "/></g></g></g></svg>