<svg xmlns="http://www.w3.org/2000/svg" xmlns:xlink="http://www.w3.org/1999/xlink" width="208" zoomAndPan="magnify" viewBox="0 0 156 36.000001" height="48" preserveAspectRatio="xMidYMid meet" version="1.0"><defs><g/><clipPath id="97cda5fa1e"><path d="M 56.585938 3.820312 L 153.125 3.820312 L 153.125 31.210938 L 56.585938 31.210938 Z M 56.585938 3.820312 " clip-rule="nonzero"/></clipPath><clipPath id="6545ea1f73"><path d="M 73.953125 3.820312 L 151.980469 3.820312 C 152.371094 3.820312 152.730469 4.03125 152.925781 4.371094 C 153.121094 4.710938 153.117188 5.128906 152.917969 5.464844 L 138.644531 29.566406 C 138.042969 30.585938 136.945312 31.210938 135.757812 31.210938 L 57.730469 31.210938 C 57.339844 31.210938 56.976562 31 56.785156 30.660156 C 56.589844 30.320312 56.59375 29.902344 56.792969 29.566406 L 71.0625 5.464844 C 71.667969 4.445312 72.765625 3.820312 73.953125 3.820312 Z M 73.953125 3.820312 " clip-rule="nonzero"/></clipPath></defs><g clip-path="url(#97cda5fa1e)"><g clip-path="url(#6545ea1f73)"><path fill="#212529" d="M 55.816406 3.820312 L 153.890625 3.820312 L 153.890625 31.210938 L 55.816406 31.210938 Z M 55.816406 3.820312 " fill-opacity="1" fill-rule="nonzero"/></g></g><g fill="#212529" fill-opacity="1"><g transform="translate(4.151349, 26.037715)"><g><path d="M 13.09375 -12.046875 L 8.53125 -12.046875 L 8.53125 0 L 4.671875 0 L 4.671875 -12.046875 L 0.15625 -12.046875 L 0.15625 -15.171875 L 13.09375 -15.171875 Z M 13.09375 -12.046875 "/></g></g></g><g fill="#212529" fill-opacity="1"><g transform="translate(16.143451, 26.037715)"><g><path d="M 13.375 -12.125 L 5.359375 -12.125 L 5.359375 -9.109375 L 12.59375 -9.109375 L 12.59375 -6.078125 L 5.359375 -6.078125 L 5.359375 -3.03125 L 13.609375 -3.03125 L 13.609375 0 L 1.515625 0 L 1.515625 -15.140625 L 13.375 -15.140625 Z M 13.375 -12.125 "/></g></g></g><g fill="#212529" fill-opacity="1"><g transform="translate(29.499292, 26.037715)"><g><path d="M 8.609375 -15.28125 C 9.734375 -15.28125 10.835938 -15.046875 11.921875 -14.578125 C 13.015625 -14.117188 13.945312 -13.5 14.71875 -12.71875 L 12.484375 -10.078125 C 11.992188 -10.691406 11.40625 -11.171875 10.71875 -11.515625 C 10.03125 -11.867188 9.347656 -12.046875 8.671875 -12.046875 C 7.472656 -12.046875 6.46875 -11.625 5.65625 -10.78125 C 4.851562 -9.9375 4.453125 -8.894531 4.453125 -7.65625 C 4.453125 -6.382812 4.851562 -5.320312 5.65625 -4.46875 C 6.46875 -3.625 7.472656 -3.203125 8.671875 -3.203125 C 9.304688 -3.203125 9.96875 -3.359375 10.65625 -3.671875 C 11.34375 -3.992188 11.953125 -4.429688 12.484375 -4.984375 L 14.734375 -2.59375 C 13.910156 -1.757812 12.941406 -1.085938 11.828125 -0.578125 C 10.710938 -0.078125 9.597656 0.171875 8.484375 0.171875 C 6.203125 0.171875 4.300781 -0.566406 2.78125 -2.046875 C 1.269531 -3.535156 0.515625 -5.394531 0.515625 -7.625 C 0.515625 -9.800781 1.285156 -11.617188 2.828125 -13.078125 C 4.378906 -14.546875 6.304688 -15.28125 8.609375 -15.28125 Z M 8.609375 -15.28125 "/></g></g></g><g fill="#212529" fill-opacity="1"><g transform="translate(43.244767, 26.037715)"><g><path d="M 15.5 0 L 11.640625 0 L 11.640625 -5.890625 L 5.359375 -5.890625 L 5.359375 0 L 1.515625 0 L 1.515625 -15.140625 L 5.359375 -15.140625 L 5.359375 -8.921875 L 11.640625 -8.921875 L 11.640625 -15.140625 L 15.5 -15.140625 Z M 15.5 0 "/></g></g></g><g fill="#ffffff" fill-opacity="1"><g transform="translate(67.807263, 26.447978)"><g><path d="M 13.3125 -12.265625 L 8.671875 -12.265625 L 8.671875 0 L 4.75 0 L 4.75 -12.265625 L 0.15625 -12.265625 L 0.15625 -15.4375 L 13.3125 -15.4375 Z M 13.3125 -12.265625 "/></g></g></g><g fill="#ffffff" fill-opacity="1"><g transform="translate(80.003133, 26.447978)"><g><path d="M 10.828125 0 L 8.546875 -4.34375 L 5.453125 -4.34375 L 5.453125 0 L 1.546875 0 L 1.546875 -15.40625 L 8.4375 -15.40625 C 10.46875 -15.40625 12.039062 -14.9375 13.15625 -14 C 14.28125 -13.070312 14.84375 -11.753906 14.84375 -10.046875 C 14.84375 -7.660156 13.910156 -6.003906 12.046875 -5.078125 L 15.28125 0 Z M 5.453125 -7.421875 L 8.4375 -7.421875 C 9.28125 -7.421875 9.9375 -7.632812 10.40625 -8.0625 C 10.882812 -8.488281 11.125 -9.101562 11.125 -9.90625 C 11.125 -10.695312 10.882812 -11.296875 10.40625 -11.703125 C 9.9375 -12.117188 9.28125 -12.328125 8.4375 -12.328125 L 5.453125 -12.328125 Z M 5.453125 -7.421875 "/></g></g></g><g fill="#ffffff" fill-opacity="1"><g transform="translate(94.686647, 26.447978)"><g><path d="M 8.84375 -15.546875 C 11.238281 -15.546875 13.226562 -14.800781 14.8125 -13.3125 C 16.394531 -11.820312 17.1875 -9.960938 17.1875 -7.734375 C 17.1875 -5.484375 16.390625 -3.601562 14.796875 -2.09375 C 13.210938 -0.582031 11.226562 0.171875 8.84375 0.171875 C 6.46875 0.171875 4.488281 -0.578125 2.90625 -2.078125 C 1.320312 -3.585938 0.53125 -5.472656 0.53125 -7.734375 C 0.53125 -9.972656 1.320312 -11.832031 2.90625 -13.3125 C 4.488281 -14.800781 6.46875 -15.546875 8.84375 -15.546875 Z M 8.890625 -12.265625 C 7.691406 -12.265625 6.664062 -11.828125 5.8125 -10.953125 C 4.957031 -10.078125 4.53125 -8.992188 4.53125 -7.703125 C 4.53125 -6.410156 4.957031 -5.320312 5.8125 -4.4375 C 6.675781 -3.550781 7.703125 -3.109375 8.890625 -3.109375 C 10.078125 -3.109375 11.085938 -3.550781 11.921875 -4.4375 C 12.753906 -5.320312 13.171875 -6.410156 13.171875 -7.703125 C 13.171875 -8.992188 12.753906 -10.078125 11.921875 -10.953125 C 11.085938 -11.828125 10.078125 -12.265625 8.890625 -12.265625 Z M 8.890625 -12.265625 "/></g></g></g><g fill="#ffffff" fill-opacity="1"><g transform="translate(111.153337, 26.447978)"><g><path d="M 10.015625 0 L 5.96875 0 L -0.015625 -15.40625 L 4.15625 -15.40625 L 8.109375 -4.078125 L 12.046875 -15.40625 L 16.078125 -15.40625 Z M 10.015625 0 "/></g></g></g><g fill="#ffffff" fill-opacity="1"><g transform="translate(125.946926, 26.447978)"><g><path d="M 13.609375 -12.328125 L 5.453125 -12.328125 L 5.453125 -9.265625 L 12.8125 -9.265625 L 12.8125 -6.1875 L 5.453125 -6.1875 L 5.453125 -3.078125 L 13.84375 -3.078125 L 13.84375 0 L 1.546875 0 L 1.546875 -15.40625 L 13.609375 -15.40625 Z M 13.609375 -12.328125 "/></g></g></g></svg>