<svg xmlns="http://www.w3.org/2000/svg" xmlns:xlink="http://www.w3.org/1999/xlink" width="500" zoomAndPan="magnify" viewBox="0 0 375 374.999991" height="500" preserveAspectRatio="xMidYMid meet" version="1.0"><defs><clipPath id="70e4f3df97"><path d="M 17.285156 17.285156 L 357.785156 17.285156 L 357.785156 357.785156 L 17.285156 357.785156 Z M 17.285156 17.285156 " clip-rule="nonzero"/></clipPath></defs><rect x="-37.5" width="450" fill="#ffffff" y="-37.499999" height="449.999989" fill-opacity="1"/><rect x="-37.5" width="450" fill="#5c636a" y="-37.499999" height="449.999989" fill-opacity="1"/><g clip-path="url(#70e4f3df97)"><path fill="#ffffff" d="M 97.78125 357.714844 L 17.285156 277.21875 L 107.003906 187.5 L 17.285156 97.78125 L 97.78125 17.285156 L 187.496094 107.003906 L 277.214844 17.285156 L 357.714844 97.78125 L 267.996094 187.5 L 357.714844 277.21875 L 277.214844 357.710938 L 217.484375 297.980469 C 192.179688 272.671875 192.179688 231.5 217.484375 206.195312 L 236.179688 187.5 L 187.496094 138.816406 L 138.816406 187.5 L 157.511719 206.195312 C 169.769531 218.453125 176.523438 234.75 176.523438 252.089844 C 176.523438 269.421875 169.769531 285.722656 157.511719 297.980469 Z M 252.085938 203.40625 L 233.390625 222.101562 C 216.855469 238.636719 216.855469 265.539062 233.390625 282.074219 L 277.214844 325.898438 L 325.894531 277.21875 Z M 49.101562 277.21875 L 97.78125 325.894531 L 141.605469 282.074219 C 149.613281 274.0625 154.027344 263.414062 154.027344 252.089844 C 154.027344 240.761719 149.613281 230.113281 141.605469 222.101562 L 122.910156 203.410156 Z M 49.101562 97.78125 L 122.910156 171.589844 L 171.589844 122.910156 L 97.78125 49.101562 Z M 203.40625 122.910156 L 252.085938 171.589844 L 325.894531 97.78125 L 277.214844 49.101562 Z M 203.40625 122.910156 " fill-opacity="1" fill-rule="nonzero"/></g></svg>